<?xml version="1.0" encoding="UTF-8"?>
<svg id="Layer_2" data-name="Layer 2" xmlns="http://www.w3.org/2000/svg" viewBox="0 0 320 320">
  <defs>
    <style>
      .cls-1 {
        fill: #2d2e37;
      }

      .cls-2 {
        fill: #f2f2f2;
      }
    </style>
  </defs>
  <g id="Layer_1-2" data-name="Layer 1">
    <g>
      <rect class="cls-1" width="320" height="320" rx="100" ry="100"/>
      <g>
        <path class="cls-2" d="M86.32,184.63c-13.56,0-24.59-11.03-24.59-24.59s11.03-24.59,24.59-24.59,24.59,11.03,24.59,24.59-11.03,24.59-24.59,24.59ZM86.32,146.57c-7.43,0-13.47,6.04-13.47,13.47s6.04,13.47,13.47,13.47,13.47-6.04,13.47-13.47-6.04-13.47-13.47-13.47Z"/>
        <path class="cls-2" d="M122.25,119.19c-13.56,0-24.59-11.03-24.59-24.59s11.03-24.59,24.59-24.59,24.59,11.03,24.59,24.59-11.03,24.59-24.59,24.59ZM122.25,81.13c-7.43,0-13.47,6.04-13.47,13.47s6.04,13.47,13.47,13.47,13.47-6.04,13.47-13.47-6.04-13.47-13.47-13.47Z"/>
        <path class="cls-2" d="M197.18,119.19c-13.56,0-24.59-11.03-24.59-24.59s11.03-24.59,24.59-24.59,24.59,11.03,24.59,24.59-11.03,24.59-24.59,24.59ZM197.18,81.13c-7.43,0-13.47,6.04-13.47,13.47s6.04,13.47,13.47,13.47,13.47-6.04,13.47-13.47-6.04-13.47-13.47-13.47Z"/>
        <rect class="cls-2" x="86.89" y="122.38" width="33.84" height="8.9" transform="translate(-58.51 149.56) rotate(-58.67)"/>
        <rect class="cls-2" x="143.4" y="89.68" width="33.62" height="8.9"/>
        <path class="cls-2" d="M233.68,184.63c-13.56,0-24.6-11.03-24.6-24.59s11.03-24.59,24.6-24.59,24.59,11.03,24.59,24.59-11.03,24.59-24.59,24.59ZM233.68,146.57c-7.43,0-13.47,6.04-13.47,13.47s6.04,13.47,13.47,13.47,13.47-6.04,13.47-13.47-6.04-13.47-13.47-13.47Z"/>
        <path class="cls-2" d="M197.18,250c-13.56,0-24.59-11.03-24.59-24.59s11.03-24.59,24.59-24.59,24.59,11.03,24.59,24.59-11.03,24.59-24.59,24.59ZM197.18,211.94c-7.43,0-13.47,6.04-13.47,13.47s6.04,13.47,13.47,13.47,13.47-6.04,13.47-13.47-6.04-13.47-13.47-13.47Z"/>
        <path class="cls-2" d="M122.25,250c-13.56,0-24.59-11.03-24.59-24.59s11.03-24.59,24.59-24.59,24.59,11.03,24.59,24.59-11.03,24.59-24.59,24.59ZM122.25,211.94c-7.43,0-13.47,6.04-13.47,13.47s6.04,13.47,13.47,13.47,13.47-6.04,13.47-13.47-6.04-13.47-13.47-13.47Z"/>
        <rect class="cls-2" x="197.82" y="189.15" width="33.84" height="8.9" transform="translate(-62.28 276.39) rotate(-58.68)"/>
        <rect class="cls-2" x="141.53" y="221.54" width="33.62" height="8.9"/>
      </g>
    </g>
  </g>
</svg>